<?xml version="1.0" encoding="utf-8"?>
<!-- Generator: Adobe Illustrator 22.0.1, SVG Export Plug-In . SVG Version: 6.00 Build 0)  -->
<svg version="1.1" id="Layer_1" xmlns="http://www.w3.org/2000/svg" xmlns:xlink="http://www.w3.org/1999/xlink" x="0px" y="0px"
	 viewBox="0 0 128 128" style="enable-background:new 0 0 128 128;" xml:space="preserve">
<style type="text/css">
	.st0{fill:#3D3DA7;}
	.st1{fill:#564BDE;}
</style>
<title>Group</title>
<desc>Created with Sketch.</desc>
<g>
	<path class="st0" d="M83.2,80.7c-0.3-0.5-0.2-1-0.2-1.5c0-10.8,0-21.6,0-32.4c0-1.2,0.4-1.8,1.3-2.3c9.5-5.4,19-10.9,28.4-16.4
		c0.4-0.2,0.7-0.5,1.4-0.4c0,0.4,0,0.9,0,1.4c0,10.8,0,21.6,0,32.4c0,0.9-0.1,1.6-1,2.1c-9.8,5.6-19.5,11.2-29.3,16.8
		C83.6,80.6,83.4,80.6,83.2,80.7z"/>
	<path class="st1" d="M13.9,25.2c0-5.3,0-10.6,0-16c0-1.7,0-1.7,1.6-0.8c9.3,5.3,18.6,10.7,27.9,16c0.9,0.5,1.2,1.1,1.2,2.1
		c0,10.8,0,21.5,0,32.3c0,1.5-0.5,1.5-1.6,0.9c-9.1-5.3-18.3-10.6-27.5-15.8c-1.3-0.8-1.8-1.7-1.7-3.2C14,35.5,13.9,30.4,13.9,25.2z
		"/>
	<path class="st1" d="M48.5,85.2c0-5.4,0-10.8,0-16.1c0-1.1,0.1-1.6,1.3-0.8c9.3,5.4,18.7,10.8,28,16.2c1,0.6,1.4,1.2,1.4,2.3
		c0,10.8,0,21.5,0,32.3c0,1.6-0.5,1.3-1.5,0.7c-8.7-5-17.3-10.2-26.1-15c-2.5-1.4-3.4-2.9-3.3-5.7C48.7,94.4,48.5,89.8,48.5,85.2z"
		/>
	<path class="st1" d="M79.2,62.8c0,5.4,0,10.7,0,16.1c0,1.4-0.4,1.5-1.5,0.8c-9.3-5.4-18.6-10.7-27.9-16c-1-0.5-1.4-1.2-1.4-2.4
		c0-10.7,0-21.4,0-32.1c0-1.4,0.3-1.6,1.5-0.9c9.4,5.4,18.8,10.8,28.2,16.2c0.9,0.5,1,1.3,1,2.2C79.2,52.2,79.2,57.5,79.2,62.8z"/>
</g>
</svg>
